<?xml version="1.0" encoding="utf-8"?>
<!-- Generator: Adobe Illustrator 19.0.0, SVG Export Plug-In . SVG Version: 6.00 Build 0)  -->
<svg version="1.1" id="Layer_1" xmlns="http://www.w3.org/2000/svg" xmlns:xlink="http://www.w3.org/1999/xlink" x="0px" y="0px"
	 viewBox="-184 281 229.2 40" style="enable-background:new -184 281 229.2 40;" xml:space="preserve">
<style type="text/css">
	.st0{fill:#506B85;}
	.st1{fill:none;}
	.st2{font-family:'Thonburi';}
	.st3{font-size:10px;}
</style>
<g id="XMLID_21_">
	<path id="XMLID_17_" class="st0" d="M-128.4,291.8c-3.3,0-6.6,1.6-6.6,5.3c0,2.4,1.5,3.7,3.7,4.3l1.8,0.5c2.1,0.6,4.6,1.1,4.6,3.7
		c0,2.8-2.9,4-5.3,4c-3.4,0-5.5-1.4-5.4-5h-1.8c-0.2,4.5,2.8,6.5,7,6.5c6,0,7.2-3.9,7.2-5.7c0-3.1-2.4-4-5-4.7l-2-0.6
		c-1.6-0.5-3.1-1.1-3.1-3.1c0-2.7,2.4-3.7,4.7-3.7c3.2,0,4.9,1,4.9,4.3h1.8C-121.6,293.3-124.6,291.8-128.4,291.8z"/>
	<path id="XMLID_16_" class="st0" d="M-118.3,308.6c0-0.4,0.1-0.6,0.2-1.3l1.8-8.6h2.7l0.3-1.4h-2.7l0.9-4.1h-1.6l-0.9,4.1h-2.4
		l-0.3,1.4h2.4l-1.8,8.9c-0.1,0.6-0.2,1.1-0.2,1.4c0,1.6,1.2,1.9,2.5,1.9c0.5,0,1.1-0.1,1.7-0.1l0.3-1.4c-0.6,0.1-1.3,0.2-1.9,0.2
		C-118.1,309.5-118.3,309-118.3,308.6z"/>
	<path id="XMLID_15_" class="st0" d="M-96.5,300.4L-96.5,300.4l0.6-3.1h-1.5l-2.9,13.4h1.6l1.5-7c0.5-2.5,2.1-4.9,5-4.9
		c0.3,0,0.6,0,0.9,0l0.4-1.6c-0.3,0-0.6,0-0.9,0C-94,297.1-95.5,298.5-96.5,300.4z"/>
	<path id="XMLID_14_" class="st0" d="M-84.5,293.2h-1.6l-0.9,4.1h-2.4l-0.3,1.4h2.4l-1.8,8.9c-0.1,0.6-0.2,1.1-0.2,1.4
		c0,1.6,1.2,1.9,2.5,1.9c0.5,0,1.1-0.1,1.7-0.1l0.3-1.4c-0.6,0.1-1.3,0.2-1.9,0.2s-0.9-0.5-0.9-0.9c0-0.4,0.1-0.6,0.2-1.3l1.8-8.6
		h2.7l0.3-1.4h-2.7L-84.5,293.2z"/>
	<path id="XMLID_13_" class="st0" d="M-64.1,298.8c0.1-4.9-3.1-7.1-7.7-7.1c-6.3,0-10,5-10,11c0,6.9,4.7,8.4,7.6,8.4
		c5.4,0,8.4-2.5,9.4-7.2h-4.8c-0.3,1.9-1.9,3.3-3.9,3.3c-2.7,0-3.4-1.8-3.4-4.2c0-2.9,1.4-7.2,5-7.2c2.3,0,3.2,1.4,3,3.1h4.8V298.8z
		"/>
	<polygon id="XMLID_12_" class="st0" points="-50.1,298.9 -56.5,298.9 -55.1,292.2 -60,292.2 -63.8,310.7 -59,310.7 -57.4,303.1 
		-51,303.1 -52.5,310.7 -47.7,310.7 -43.8,292.2 -48.7,292.2 	"/>
	<path id="XMLID_11_" class="st0" d="M-29.3,292.2l-2,9.6c-0.7,2.9-1.2,5.4-4.5,5.4c-1.7,0-2.8-0.8-2.8-2.2c0-1,0.3-1.9,0.5-2.8
		l2.2-9.9h-4.8l-2.1,9.7c-0.3,1.2-0.5,2.3-0.5,3.9c0,2.9,2.7,5.4,7.5,5.4c6.7,0,8.2-3.4,9.3-8.3l2.2-10.6h-5V292.2z"/>
	<path id="XMLID_30_" class="st0" d="M-6.5,297c0-3.9-2.6-4.8-6-4.8h-9.1l-3.8,18.6h4.8l1.4-6.8h3.2c1.7,0,2.4,0.9,2.4,2.5
		c0,1.2-0.1,2.2-0.1,3.2c0,0.4,0.1,0.7,0.2,1.1h4.9c-0.3-0.5-0.3-1.3-0.3-2c0-1.1,0.1-2.1,0.1-3.5c0-1.8-0.5-2.8-1.9-3.1v-0.1
		C-7.9,301.7-6.5,299.7-6.5,297z M-14.6,300.4h-3.8l0.9-4.5h3.6c1.3,0,2.6,0.3,2.6,1.9C-11.4,299.8-12.9,300.4-14.6,300.4z"/>
	<path id="XMLID_8_" class="st0" d="M12.4,298.8c0.1-4.9-3.1-7.1-7.7-7.1c-6.3,0-10,5-10,11c0,6.9,4.7,8.4,7.6,8.4
		c5.4,0,8.4-2.5,9.4-7.2H6.9c-0.3,1.9-1.9,3.3-3.9,3.3c-2.7,0-3.4-1.8-3.4-4.2c0-2.9,1.4-7.2,5-7.2c2.3,0,3.2,1.4,3,3.1h4.8V298.8z"
		/>
	<polygon id="XMLID_7_" class="st0" points="27.9,292.2 26.4,298.9 20,298.9 21.4,292.2 16.6,292.2 12.7,310.7 17.5,310.7 
		19.1,303.1 25.6,303.1 24,310.7 28.8,310.7 32.7,292.2 	"/>
	<path id="XMLID_25_" class="st0" d="M-103.2,308.9c0-0.8,0.3-1.5,0.9-4.5c0.3-1.2,0.8-3.2,0.8-4.5c0-2.4-2.8-3-4.7-3
		c-2.9,0-5.2,1.4-5.7,4.4h1.6c0.3-2.2,2.1-3,4.2-3c1.2,0,2.8,0.3,2.8,1.9c0,1.8-0.5,2.4-1.6,2.6c-1,0.3-2.5,0.1-4.3,0.4
		c-2.4,0.4-4.7,1.3-4.7,4.2c0,2.6,1.8,3.7,4.3,3.7c1.9,0,3.7-0.9,4.7-2.5l0.1,0.1c0,0.2-0.1,0.5-0.1,0.7c0,0.9,0.5,1.5,1.4,1.5
		c0.4,0,1-0.1,1.4-0.1l0.2-1.3c-0.2,0-0.4,0.1-0.6,0.1C-102.8,309.5-103.2,309.4-103.2,308.9z M-104.3,305.8
		c-0.5,2.3-2.2,3.9-4.8,3.9c-1.6,0-3-0.7-3-2.4c0-2.8,3.3-2.9,5.3-3.1c0.8-0.1,2.4-0.1,3-0.8l0.1,0.1L-104.3,305.8z"/>
	<path id="XMLID_22_" class="st0" d="M-163.8,281.7c-9.9,0-18.1,7.5-19.2,17.2l10.1-7l15.7,14.5l-0.2,2.7l-16-12.9l-9.8,5.6
		c0.4,8.4,6.2,15.5,14,17.7l4.4-13.6l3.2,2.5l-5.5,11.6c1.1,0.2,2.2,0.3,3.3,0.3c10.7,0,19.3-8.6,19.3-19.3
		S-153.1,281.7-163.8,281.7z M-158.4,289l-5.4-0.2l-0.8,7.1l-2.9-0.6l1.4-6.6l-4.9-0.2l0.4-2.9l5.1,0.7l0.7-3l1.7,0.1l-0.4,3.2
		l5.2,0.7L-158.4,289L-158.4,289z"/>
</g>
<rect id="XMLID_1_" x="34.7" y="288.4" class="st1" width="21.2" height="11.4"/>
<text id="XMLID_2_" transform="matrix(1 0 0 1 34.6564 296.9527)" class="st0 st2 st3">®</text>
</svg>
